<svg id="Layer_1" data-name="Layer 1" xmlns="http://www.w3.org/2000/svg" viewBox="0 0 512 512"><defs><style>.cls-1{fill:#828282;}.cls-2{fill:#011627;}</style></defs><title>iconArtboard 1</title><path class="cls-1" d="M475.44,236,261.8,50.94a8.84,8.84,0,0,0-11.6,0L36.56,236a8.86,8.86,0,0,0,5.81,15.56h53.7v186.9a8.87,8.87,0,0,0,8.87,8.86H407.06a8.87,8.87,0,0,0,8.87-8.86V251.58h53.71a8.86,8.86,0,0,0,5.8-15.56Zm-68.38-2.17a8.87,8.87,0,0,0-8.86,8.87V429.61H113.8V242.72a8.87,8.87,0,0,0-8.86-8.87H66.13L256,69.37,445.86,233.85Z"/><path class="cls-1" d="M393.85,207.06l-58-51a8.86,8.86,0,0,0-11.71,13.31l58,51a8.86,8.86,0,1,0,11.7-13.32Z"/><path class="cls-1" d="M315.37,138.07l-2.68-2.36A8.87,8.87,0,0,0,301,149l2.68,2.35a8.86,8.86,0,0,0,11.71-13.31Z"/><path class="cls-2" d="M360.66,353.33l-92.44-92.45a56.42,56.42,0,1,0-42.69,42.7l6.15,6.15a8.91,8.91,0,0,0,6.68,2.59l.66,2.85a8.8,8.8,0,0,0,2.37,4.27l8.66,8.67a8.87,8.87,0,0,0,6.27,2.59h2.58v2.58a8.89,8.89,0,0,0,2.59,6.27l6.76,6.76a8.87,8.87,0,0,0,6.27,2.59h11.24v11.24a8.88,8.88,0,0,0,2.6,6.27l13.86,13.87a8.9,8.9,0,0,0,6.27,2.6h5.12V388a8.84,8.84,0,0,0,2.6,6.27l12.53,12.54a8.88,8.88,0,0,0,12.54,0l19.39-19.39a8.85,8.85,0,0,0,2.59-6.26V359.59A8.81,8.81,0,0,0,360.66,353.33Zm-15.13,24.14L335,388l-3.67-3.67h0V374a8.87,8.87,0,0,0-8.87-8.87H312.16l-8.67-8.67V340a8.87,8.87,0,0,0-8.86-8.87H278.19l-1.56-1.57v-7.76a8.87,8.87,0,0,0-8.87-8.87H260l-4.27-4.27-3.07-13.3a8.87,8.87,0,0,0-14.7-4.47l-3.54-3.54a8.87,8.87,0,0,0-9-2.15,38.69,38.69,0,1,1,24.53-24.53,8.85,8.85,0,0,0,2.14,9.06l93.5,93.5v14.2Z"/><path class="cls-2" d="M214.84,237.36,210,232.48A8.87,8.87,0,1,0,197.43,245l4.88,4.88a8.86,8.86,0,0,0,12.53-12.54Z"/></svg>