<svg id="Layer_1" data-name="Layer 1" xmlns="http://www.w3.org/2000/svg" viewBox="0 0 512 512"><defs><style>.cls-1{fill:#011627;}.cls-2{fill:#828282;}</style></defs><title>iconArtboard 1</title><path class="cls-1" d="M320.24,39.17H191.76a41.13,41.13,0,0,0-41.08,41.07V247.52a32,32,0,0,0,32,32h31.87A15.43,15.43,0,0,1,229.8,297L212.86,423.54a43.52,43.52,0,1,0,86.27,0L282.2,297a15.43,15.43,0,0,1,15.29-17.47h31.87a32,32,0,0,0,32-32V80.24A41.13,41.13,0,0,0,320.24,39.17Zm9.11,223H297.49a32.7,32.7,0,0,0-32.41,37L282,425.83a26.24,26.24,0,1,1-52,0l16.94-126.59a32.72,32.72,0,0,0-32.42-37H182.65a14.7,14.7,0,0,1-14.51-12.4H343.86A14.7,14.7,0,0,1,329.35,262.2ZM344,232.52H168V187H344Zm0-62.75H168V80.24a23.83,23.83,0,0,1,14.95-22.08V147a8.64,8.64,0,1,0,17.28,0V56.45h14.95V147a8.64,8.64,0,1,0,17.27,0V56.45h15V147a8.64,8.64,0,0,0,17.28,0V56.45h14.95V147a8.64,8.64,0,1,0,17.27,0V56.45h14.95v59.2a8.64,8.64,0,1,0,17.28,0V58.16a23.83,23.83,0,0,1,15,22.08v89.53Z"/><path class="cls-2" d="M320.45,134.15a8.64,8.64,0,0,0-8.64,8.64V147a8.64,8.64,0,1,0,17.28,0v-4.24A8.64,8.64,0,0,0,320.45,134.15Z"/><path class="cls-2" d="M256,418.24a8.64,8.64,0,0,0-8.64,8.64v4.24a8.64,8.64,0,0,0,17.28,0v-4.24A8.64,8.64,0,0,0,256,418.24Z"/></svg>