<?xml version="1.0" encoding="utf-8"?>
<!-- Generator: Adobe Illustrator 22.0.1, SVG Export Plug-In . SVG Version: 6.00 Build 0)  -->
<svg version="1.1" id="Capa_1" xmlns="http://www.w3.org/2000/svg" xmlns:xlink="http://www.w3.org/1999/xlink" x="0px" y="0px"
	 viewBox="0 0 512 512" style="enable-background:new 0 0 512 512;" xml:space="preserve">
<style type="text/css">
	.st0{fill:#FFFFFF;}
</style>
<g>
	<g>
		<path class="st0" d="M279.3,0h-46.5C152.5,0,87.3,65.3,87.3,145.5v221.1c0,80.2,65.3,145.5,145.5,145.5h46.5
			c80.2,0,145.5-65.3,145.5-145.5V145.5C424.7,65.3,359.5,0,279.3,0z M389.8,366.5c0,61-49.6,110.5-110.5,110.5h-46.5
			c-61,0-110.5-49.6-110.5-110.5V145.5c0-61,49.6-110.5,110.5-110.5h46.5c61,0,110.5,49.6,110.5,110.5V366.5z"/>
	</g>
</g>
<g>
	<g>
		<path class="st0" d="M256,110.5c-25.4,0-45.4,19.9-45.4,45.4v48.9c0,25.4,19.9,45.4,45.4,45.4s45.4-19.9,45.4-45.4v-48.9
			C301.4,130.5,281.4,110.5,256,110.5z M266.5,204.8c0,6.1-4.4,10.5-10.5,10.5s-10.5-4.4-10.5-10.5v-48.9c0-6.1,4.4-10.5,10.5-10.5
			c6.1,0,10.5,4.4,10.5,10.5V204.8z"/>
	</g>
</g>
</svg>
