<svg id="Layer_1" data-name="Layer 1" xmlns="http://www.w3.org/2000/svg" viewBox="0 0 512 512"><defs><style>.cls-1{fill:#828282;}.cls-2{fill:#011627;}</style></defs><title>iconArtboard 1</title><path class="cls-1" d="M320,140.32a203,203,0,0,0-69.69,3.1,10.67,10.67,0,0,0,2.25,21.09,11,11,0,0,0,2.27-.24,181.28,181.28,0,0,1,62.28-2.81A10.67,10.67,0,1,0,320,140.32Z"/><path class="cls-1" d="M397.77,195.57a10.67,10.67,0,0,0-4.22,14.49c.84,1.53,1.64,3.09,2.38,4.62a10.67,10.67,0,1,0,19.23-9.23c-.91-1.88-1.89-3.78-2.91-5.65A10.67,10.67,0,0,0,397.77,195.57Z"/><path class="cls-1" d="M413.57,230.93a10.67,10.67,0,0,0-9.11,12,94.9,94.9,0,0,1-19.21,71.67,10.67,10.67,0,1,0,16.87,13.06A116.16,116.16,0,0,0,425.6,240,10.68,10.68,0,0,0,413.57,230.93Z"/><path class="cls-2" d="M480.16,224a31.5,31.5,0,0,0-12.91,2.76c-5.77-34-21.84-63.14-47.35-85.39-25.08-21.88-58-36.34-95.88-42.28a42.66,42.66,0,1,0-80.64.33,247.63,247.63,0,0,0-51.47,14l-54-46.79a10.66,10.66,0,0,0-17.59,7l-7.15,71c-30.88,17.48-50.47,42.81-59.82,77.27-5.34,19.68-8.73,20.82-19.67,21.74-16.81,1.42-24.94,8.63-28.81,14.44-5.6,8.41-6.34,19.22-2.18,32.16L15,328.76c5.83,18.1,16.62,21.9,24.65,21.9H51.55c27.57,35.9,53.15,44.43,86.46,52.74-1.07,13.7-2.94,30-4.76,44.59H106a10.67,10.67,0,1,0,0,21.33H219.66a10.67,10.67,0,0,0,0-21.33h-4.08l6.61-22.47c25.59,4,52,2.13,84.73-5.88.14,1.15.27,2.31.41,3.48,1.28,10.91,2.72,23.28,2.44,35.29a10.67,10.67,0,0,0,10.66,10.92h98.82a10.67,10.67,0,0,0,0-21.34H395.9c9.57-38.71,27.48-77.78,40.26-94.28A158.24,158.24,0,0,0,469.65,256a10.51,10.51,0,1,1,21,0,10.84,10.84,0,0,1-3.11,7.57,10.67,10.67,0,0,0,15.14,15A32,32,0,0,0,480.16,224ZM283.64,64a21.33,21.33,0,1,1-21.33,21.33A21.36,21.36,0,0,1,283.64,64ZM419.3,340.65c-17,22-36.18,67.69-45.33,107.34H331c-.39-9.62-1.47-18.89-2.46-27.35-.64-5.45-1.24-10.61-1.59-15.26a10.67,10.67,0,0,0-13.48-9.49c-39.44,10.91-68.32,13-96.57,7a10.65,10.65,0,0,0-12.45,7.43L193.35,448h-38.6c2.16-17.64,4.34-37.25,5.16-52.24a10.68,10.68,0,0,0-8.13-10.94c-37.2-9.07-59.66-14.55-86.27-51.09a10.65,10.65,0,0,0-8.62-4.39H39.69c-1.51,0-3.28-3.82-4.33-7.1L23,283.7c-2-6.24-2.14-11.14-.38-13.79s6.35-4.46,12.85-5c24.37-2,32.32-14.73,38.47-37.42,10.93-40.29,36.16-57.36,54.18-66.69a10.67,10.67,0,0,0,5.71-8.41l5.66-56.19,43.46,37.64a10.66,10.66,0,0,0,11.18,1.74A230.72,230.72,0,0,1,257.49,119a42.51,42.51,0,0,0,52.62-.24c67.66,7.4,138.21,47,138.21,137.23A137.08,137.08,0,0,1,419.3,340.65Z"/><path class="cls-2" d="M127.46,213.26a10.67,10.67,0,1,0,10.66,10.67A10.69,10.69,0,0,0,127.46,213.26Z"/><path class="cls-1" d="M285.36,448h-10a10.67,10.67,0,0,0,0,21.34h10a10.67,10.67,0,0,0,0-21.34Z"/></svg>