<svg id="Layer_1" data-name="Layer 1" xmlns="http://www.w3.org/2000/svg" viewBox="0 0 512 512"><defs><style>.cls-1{fill:#ff8f00;}.cls-2{fill:#ffa533;}</style></defs><title>iconArtboard 1</title><path class="cls-1" d="M486.46,177.89l-9-.69-9.05,1.7-9.05-2.35-9.05,2-9.06-2.83-9.05,2-9,.34-9.05-2.13-9.06.61-9.05-.22-9.05.74-9.05,1.31-9.06-1.12-9-2-9.06,2.18-9.06.36-9.2-.63.41-9.36.63-9.23-1.05-9.22.06-9.22,1.87-9.23-2.11-9.22,1.52-9.23-1.81-9.22L334.39,94l-2.47-9.22,1.78-9.23-2.43-9.22,2.82-9.23-.91-9.22-.68-9.23-.81-9.23-.46-9.23,2-9.24L330,3.32,322.35.63l-9,.86-9-2.37-9,3.07-9-2.33-9,1-9-1.47-9-.35-9,.52-9,.81-9-.38-9,2.63-9-2.09-9-1.55-9,.5-9-.23-9,.83-9,1.81-9-.19-9,.82-9-2.3-9,1.66-9-1.17-9-.06-7.07,3.27L106.41,11l-1.62,9.07L106,29.13l-.67,9.07-.61,9.07v9.07l1.09,9.07,1.29,9.07-1.81,9.07-.69,9.07,1.76,9.07L104,110.77l1.93,9.07-1.67,9.07.28,9.07,2.55,9.07-2.9,9.07,1.13,9.07-.16,9.08-1,9.07-.18,9.07.55,9.07-.79,9.07,2.38,9.07-1.36,9.07,1.25,9.07.08,9.07.52,9.07-2.2,9.07,2.06,9.07-1,9.07-.66,9.08.74,9.07-1.74,9.07.36,9.08,1.11,9.07.51,9.07-.06,9.08,1,9.07-1,9.07-1.85,9.08.11,9.07,3.09,9.08-.28,9.08.1,9.08.1,9.08.81,7.84,7.84,3.74,9,0,9-3.27,9,2.38,9,.94,9-.58,9,.66,9,.08,9.05-1.85,9,.75,9-.92,9,1.58,9,.23,9.05-1.59,9-.33,9,1.72,9,.5,9.05-1.53,9-.7,9-.51,9-.37,9,.47,9,2.56,9-1.07,9-.39,9,1.43,9-2,9.05,1.63,9-3,9.05,1.66,9,.52,9,1.11,9.05-.83,9-1.06,9.05,1.79,9-3.06,9.05,2.13,9,.9,9.05-.13h9.05l9.05.1,9-.27V430l8-2.74,3.39-8-3.09-8.92L498,401.4l-2-8.92-.38-8.92,2.83-8.92-1.5-8.92-1.8-8.91,1.44-8.92L495.3,339,496,330l-.09-8.91V312.2l1.26-8.92,1.33-8.92L495,285.43l1.87-8.92-1-8.92.66-8.93L495,249.74l-.08-8.92L498,231.9l-.81-8.93L495.65,214l1.44-8.92.93-8.93-1.79-8.93-2.16-7.62ZM261,20.63l9,.42,8.42-1.7,8.42,2.35,8.42-2,8.42,2.83,8.92-1.81.51,9.85L311,40l.73,9.07-8-.39-8.42.74-8.42,1.31-8.41-1.12-8.43-2-8.73,2L260.87,40l.57-9.4Zm-135.73,0,9.48.43,8.87-1.7,8.87,2.35,8.87-2,8.87,2.83,8.87-2,8.87-.34,8.87,2.13,8.88-.61,8.87.22,8.87-.74,8.88-1.31,9,1.18-1.91,9.55L241.65,40,241.8,50l-9.43-.33-8.87-.47-8.87-.63-8.87,1-8.87-.06L188,47.64l-8.87,2.11-8.87-1.52L161.4,50l-8.87-2.46-8.88,2.47-8.88-1.78-9.81,2L127.44,40l-.91-9.43Zm52.75,389-9.2-.43-8.59,1.71-8.59-2.35-8.58,2-8.59-2.83-9.09,1.82-.52-9.79,2.13-9.33-.6-9.34.21-9.34-.74-9.34-1.3-9.34,1.11-9.34,2-9.34L125.48,325l-.35-9.34.57-9.34.47-9.35.39-8.73,7.92-.76,8.58,0,8.59,1.87,8.59-2.1,8.59,1.52,9-1.61L175.59,297l2.47,9.34-1.78,9.34,2.43,9.34-2.83,9.34.91,9.34.68,9.34.82,9.33.45,9.34-2,9.35.06,9.34.49,9.35Zm134.72,0-9.4-.43-8.79,1.71-8.79-2.35-8.8,2-8.79-2.83-8.79,2-8.8.34-8.79-2.12-8.79.6-8.8-.21-8.8.74-8.8,1.3-9-1.18,1.92-9.48-2.18-9.33-.36-9.34.57-9.34.47-9.34.63-9.34-1.05-9.34.06-9.34L199.6,325l-2.11-9.34,1.52-9.34L197.2,297l2-8.08,7.45-1.9,8.8,1.78,8.79-2.43,8.79,2.83,8.8-.91,8.79-.68,8.79-.82,8.79-.46,8.8,2,8.8-.06,8.79-.49,8.8-.86,7.58,1.85,2.62,8.18-2.33,9.34,1,9.34L310.76,325l-.35,9.34.52,9.34.81,9.34-.38,9.33,2.63,9.34L311.9,381l-1.55,9.34.5,9.39Zm0-141.8-9.46-.45-8.87,1.7-8.86-2.35-8.87,2-8.87-2.83-8.86,2-8.87.34-8.87-2.13-8.87.61-8.87-.22-8.87.74-8.87,1.31-8.87-1.12-8.87-2-8.87,2.18-8.86.36-8.87-.57-8.88-.47-8.87-.63-8.88,1.05-8.94-.09,1.84-9-2.1-9,1.52-9-1.82-9,2.46-9-2.47-9,1.78-9-2.43-9,2.83-9-.91-9-.68-9-.82-9-.46-9,2-9-.06-9-.49-9-.86-9,2.37-9-3.07-9,2.33-9-1-9,1.07-8,7.87.76,8.87-.51,8.86-.82,8.87.39L170.23,68l8.86,2.1L188,71.62l8.87-.5,8.87.24,8.87-.84,8.87-1.81,8.87.19,8.87-.82,8.87,2.31,8.87-1.67,8.86,1.18,8.87,0,8.88-.34,8.87-.7,8.88,1.62,9.26-1.09L312,78.78l-.61,9v9l1.09,9,1.29,9-1.81,9-.69,9,1.76,9-2.41,9,1.93,9-1.68,9,.28,9,2.55,9-2.9,9,1.14,9-.16,9-1,9-.17,9,.54,9-.78,9,2.37,9ZM476.26,409.88l-9-.7-9,1.7-9-2.34-9,2-9-2.83-9,2-9,.34-9-2.13-9,.61-9-.22-9,.74-9,1.31-9-1.12-9-2-9,2.17-9.53.14.34-9.36.47-8.81.63-8.81-1.05-8.82.06-8.81,1.87-8.81-2.11-8.82,1.52-8.81-1.81-8.81,2.46-8.82-2.47-8.82,1.78-8.81-2.43-8.82,2.82-8.81-.91-8.82L332.5,268l-.81-8.81-.46-8.82,2-8.82-.05-8.81-.49-8.83-.86-8.81,2.37-8.83-2.65-9.81,9.95,1.92,9-1,9,1.48,9,.34,9-.51,9-.82,9,.39,9-2.64,9,2.1,9,1.54,9-.5,9,.24,9-.84,9-1.81,9,.19,10.21-.32-1.79,10.05,1.67,8.81-1.18,8.81-.05,8.82.34,8.81.7,8.81-1.62,8.81L476.8,268l-.67,8.81-.61,8.82v8.81l1.08,8.82,1.3,8.82-1.81,8.81-.69,8.82,1.76,8.82-2.42,8.81,1.94,8.82L475,364.93l.28,8.82,2.55,8.82-2.9,8.82,1.13,8.83L475.9,409Z"/><polygon class="cls-2" points="88.59 382.45 80.52 382.01 73.72 383.72 69.45 389.52 62.37 394.49 64.49 384.42 61.48 375.46 63.39 366.5 62.48 357.54 61.9 348.57 63.1 339.61 61.48 330.65 63.71 321.69 61.44 312.72 64 303.76 62.92 294.8 63.22 285.83 61.53 276.87 61.47 267.91 61.96 258.94 65.12 249.98 62.32 241.02 64.12 232.06 62.96 223.1 61.32 214.14 61.43 205.18 62.3 196.21 62.43 187.25 62.91 178.29 63.41 169.33 62.91 160.36 64.08 151.4 61.31 142.43 63.97 133.47 63.58 124.5 64.2 115.53 63.35 106.57 65.12 97.6 63.08 88.64 62.09 79.67 64.53 70.71 62.89 61.74 63.88 52.77 63.77 43.8 62.58 33.99 67.93 40.2 73.2 45.01 80.52 48.83 86.53 43.7 91.1 37.69 87.73 30.48 81.99 22.48 74.97 15.76 65.99 10.99 59.46 3.77 53.03 1.15 45.02 2.19 37.99 8.89 33.21 17.86 25.5 23.9 17.42 29.58 16.32 37.69 19.1 44.13 25.54 47.43 32.77 44.92 39.1 41.17 43.11 34.47 42.36 43.78 42.72 52.74 42.27 61.71 44.21 70.67 41.57 79.63 44.15 88.59 41.25 97.56 42.13 106.52 42.29 115.48 42.23 124.44 41.45 133.41 42.95 142.37 42.73 151.34 42.13 160.3 42.96 169.26 43.52 178.23 42.54 187.19 41.18 196.15 42.13 205.11 40.96 214.07 43.04 223.03 41.28 231.99 44.68 240.95 41.67 249.92 44.15 258.88 44.18 267.85 43.81 276.81 42.53 285.78 41 294.74 41.75 303.71 44.71 312.67 43.78 321.64 44.45 330.6 42.22 339.57 41 348.53 43.17 357.5 43.83 366.47 44.56 375.44 43.37 384.41 43.27 393.95 37.11 389.02 31.81 384.25 25.54 380.64 18.44 383.42 16.19 390.52 19.03 397.03 24.53 405.26 32.51 411.02 37.8 419.48 44.73 426.3 53.03 430.02 60.02 425 66.03 417.27 72.76 410.26 81.5 405.25 86.39 396.38 91.32 390.51 88.59 382.45"/><polygon class="cls-2" points="394.71 466.72 385.66 467.65 376.61 467.91 367.56 465.53 358.52 466.28 349.47 465.95 340.42 467.06 331.38 467.89 322.33 466.66 313.29 467.56 304.24 466.51 295.2 466.27 286.15 467.45 277.1 466.19 268.05 466.31 259 465.75 249.95 465.62 240.9 466.61 231.85 466.67 222.8 467.58 213.75 466.39 204.7 467.28 195.66 465.91 186.61 467.7 177.55 465.38 168.5 465.65 159.45 467.04 150.39 467.29 140.49 466.88 147.88 458.29 150.72 452.01 148.34 445.28 141.61 442.73 133.76 444.17 128.24 451.07 121.62 456.91 116.62 464.36 110.12 470.31 105.97 476.9 109.31 484.31 115.96 490.09 121 497.49 127.38 503.57 134.96 508.44 141.6 511.41 148.02 508.22 152.8 501.8 148.53 494.87 140.35 486.89 150.38 486.17 159.43 485.91 168.48 485.83 177.52 487.58 186.57 485.83 195.62 487.15 204.66 488.39 213.71 487.65 222.75 486.16 231.8 486.27 240.85 487.51 249.89 487.23 258.94 486.18 267.99 486.24 277.04 487.9 286.09 488.11 295.14 487.62 304.19 487.72 313.24 487.97 322.29 486.18 331.34 486.36 340.39 486.63 349.44 486.42 358.49 488.23 367.54 485.88 376.59 487.62 385.65 486.57 394.71 487.01 401.37 483.56 403.75 476.9 401.22 470.39 394.71 466.72"/><polygon class="cls-2" points="436.53 466.77 432.45 466.78 425.28 469.73 422.34 476.9 425.25 484.1 432.45 487.06 436.53 487.17 443.78 484.15 446.79 476.9 443.81 469.62 436.53 466.77"/><polygon class="cls-2" points="493.31 469.62 487.03 463.46 480.81 457.24 474.63 450.96 468.17 444.97 461.13 442.05 453.92 444.81 450.73 452.01 453.97 459.17 459.67 465.25 465.8 470.91 471.37 476.9 465.7 482.79 459.74 488.62 453.72 494.39 450.84 501.8 453.93 509 461.13 511.97 468.43 509.1 474.76 503 480.99 496.78 487.04 490.38 493.29 484.17 496.53 476.9 493.31 469.62"/></svg>