<svg id="Layer_1" data-name="Layer 1" xmlns="http://www.w3.org/2000/svg" viewBox="0 0 512 512"><defs><style>.cls-1{fill:#ffa533;}.cls-2{fill:none;stroke:#ff8f00;stroke-linecap:round;stroke-miterlimit:10;stroke-width:20px;}</style></defs><title>iconArtboard 1</title><path class="cls-1" d="M507.3,243.87l-5.45-7.61-5.67-7.36L488,224.42l-6.08-6.88-7.56-5.17-7.78-4.93-5-8.07-7.07-5.74-7.39-5.35-8.53-4.06L433.69,176,425.93,171l-6.5-6.39-8.24-4.39-5-8.17-8.11-4.54-7.17-5.62L385,134.84l-7.91-4.77-5.73-7.29L364,117.44l-5.38-7.69-8.14-4.52-6.75-6.11-8.1-4.56-7.15-5.65-6.74-6.12L315,76.59l-6.95-5.88-6.31-6.62-5.51-7.55-9-3.5-7-5.88-5.09-8-7.88-4.82-6.12-1.82-7.79-.11-6.81,6L240,44.69l-7.37,5.39-5.24,7.86-6.73,6.12-6.13,6.83-8.59,4-7.54,5.19-6.21,6.72-5.33,7.75-6.57,6.3L172.7,106l-8.56,4-6,7-6.94,5.88-7.09,5.72-7.83,4.86-6,7-6.53,6.37-5.52,7.53-9,3.49-4.67,8.52-8.25,4.38-7,5.79-6.64,6.24-8.26,4.38-4.22,9-7,5.76-7.87,4.83L47.72,212l-7.25,5.55L35.8,226l-9,3.55-7,5.78-7,5.84L9,254.2l11.32,5.42L29,258.31l8.64,1.51,8.65,1.61L55,258.91l8.65,2.33,8.65.21,7,.05,2.33,7.63,1.31,9.15-.87,9.16-1.94,9.16,1.17,9.15,1.55,9.16-1.09,9.16.07,9.16.25,9.15-2,9.17,1.4,9.16-1.26,9.15.61,9.17,2.29,9.16-4.08,9.16L83,406.51l-4,9.16.23,9.16L82.06,434l-1.23,9.16.11,9.17-.87,9.16,2.9,9.17,1.94,6,6,2.73,9,1.78,9-2.65,9,3,9-.46,9-2,9,1.62,9-.41,9,2.45,9-1.38,9-2.8,9,2,9,1.82,9-.42h9l8.95.25,9-3.51,9,3.32,9-3.35,9,2.81,9-.21,9-1.65,9,.43,9,1.15,9-1.26,9,.45,9,.67,9,.39,9-.11,9,.32,9,.25,9-2.56,9-.18,9,1.14,9,1.72,9-.27,9-1.67,9-.09,9,1.37,8.58-2.13-.27-8.58,1.1-9.16.84-9.15,1.36-9.16.35-9.15-2.25-9.16.69-9.16-2.24-9.15,1.54-9.16-.38-9.16-.88-9.16,3-9.16-3.47-9.16,2.75-9.16.87-9.16.31-9.16-2.76-9.16,2.75-9.16-3.83-9.16,3.09-9.16.19-9.17.26-9.16-3.67-9.17,2.57-8.7,8.15-2,8.65,1.61,8.64-.26,8.65-2,8.65,1.12,8.65-.74L502,260.3l9.06-6.94Zm-75.83-2-7.25.82L419.36,250l1.95,9.16-1.21,9.15,1,9.16,1.37,9.15-2.8,9.16.3,9.16.79,9.16,2.52,9.15-3.05,9.16,1.35,9.16-.58,9.16,2.08,9.16L420.19,369l1.88,9.16.45,9.17L421,396.51l1.58,9.16-1.76,9.16.82,9.17-2.28,9.16,1.91,9.16-.2,9.17,1.44,10.21-10,.86-8.91-.21-8.9-.32-8.9.11-8.91-.87-8.9-2.09-8.91,3.25-8.9.11-8.91-2.75-8.9,1.52-8.9.46-8.91-3-8.9.1-8.9.44-8.9-.75L279,461.06l-8.9.21-8.9,1.15-8.9-2.62-8.91-1-8.9,1-8.91,2.38-8.9.45-8.91-1.07L198.88,459l-8.9,1.4-8.91-.1-8.91-.31-8.9-1.46-8.91,1.4-8.9.54-8.91,2.09-8.91-3.28-8.91,3.38-8.92-2.09-8.68-.13-.27-8.93,2.1-9.15-4.06-9.16.26-9.15,1.5-9.16,1-9.16.56-9.16-3.37-9.15,3.21-9.16.24-9.16.17-9.16.47-9.16-2.44-9.16-1.31-9.17,1.51-9.16,1.61-9.16L99.83,305l2.33-9.16.2-9.16.75-9.16-2.94-9.16-1.3-9.17.87-9.17-1.22-7.62-7.62-2-8.75,1.55-8.74-1.09-8.75.07-8.75.25-8-1.4,5.75-6.2,7.72-5,6.5-6.43,5.4-7.72,9.58-2.88,4.35-8.92,9.53-2.94,6.75-6.15,5-8.17,7.71-5.05,6.83-6.07,7.47-5.31,5-8.17,7.25-5.58,7.07-5.79,8.07-4.63,5.16-8L172,133l6.61-6.33,5.57-7.52,8-4.75,6.64-6.3,8.51-4.13,6-7,5.07-8.09,8.23-4.46,8.1-4.6,6.63-6.3,6.91-6,7.08-5.8,5.89-9.12,6,9L276.29,65l5.06,8.09,7,5.82,8,4.73L303,90l6.14,6.85,7.73,5,6.6,6.32,6.47,6.48,6.64,6.28,7,5.89,6.69,6.22,6.74,6.17,8.58,4.05,7,5.84,6.15,6.84,5.78,7.29,7.09,5.77,8,4.73,7,5.91,6,7,6,7.05,9.41,3.1,6.18,6.81,6.36,6.62,6,7,6.68,6.24,8.38,4.29L468,234.3l8.94,6.22-10.5-.24-8.75.38-8.75.88-8.9-3Z"/><polygon class="cls-1" points="424.12 209.57 417.32 204.15 410.74 198.45 404.57 192.3 397.87 186.75 391.1 181.26 384.54 175.54 378.17 169.63 371.82 163.66 365.05 158.17 358.76 152.13 351.33 149.69 344.4 153.18 342.26 160.47 345.61 167.09 352.02 172.96 358.58 178.67 364.73 184.85 371.38 190.46 378.17 195.92 384.7 201.66 390.92 207.76 397.48 213.49 404.37 218.84 410.85 224.67 417.33 227.67 425.06 224.09 427.62 216.63 424.12 209.57"/><polygon class="cls-1" points="335.43 132.04 332.44 129.36 325.19 126.82 318.34 130.27 315.81 137.51 319.3 144.3 322.23 147.05 328.85 149.51 336.29 146.05 338.92 138.87 335.43 132.04"/><polygon class="cls-1" points="98.46 190.52 88.81 190.83 78.74 190.99 79.69 181.91 78.35 173.14 78.34 164.36 79.55 155.59 78.41 146.81 78.45 138.04 78.39 129.26 78.93 120.48 78.63 111.71 78.93 102.93 78.65 94.16 79.58 85.38 79.32 76.6 78.9 67.82 79.18 59.04 78.72 50.25 81.8 43.25 88.81 40.22 97.53 40.76 106.25 40.5 114.98 40.45 123.71 40.09 132.44 40.06 141.17 40.98 147.68 43.74 151.55 50.25 150.79 59.22 150.86 68.18 150.89 77.14 151.13 86.11 150.36 95.07 151.54 104.03 151.05 113 151.17 121.96 151.48 130.93 151.25 139.9 150.87 148.76 141.17 149.16 131.62 148.6 131.7 139.99 131.81 131.11 131.28 122.23 130.92 113.35 130.85 104.47 131.19 95.59 130.87 86.71 131.17 77.83 130.9 68.94 131.32 60.1 123.18 60.39 114.99 59.64 106.8 60.11 98.6 60.05 98.04 68.76 98.6 77.47 99.22 86.17 98.35 94.88 98.72 103.59 98.41 112.3 98.98 121 98.02 129.71 98.75 138.42 98 147.13 98.36 155.84 97.97 164.55 99.17 173.26 98.13 181.97 98.46 190.52"/><polyline class="cls-2" points="320.2 236.75 314.33 239.99 309.19 244.19 304.25 248.54 299.88 253.55 296.2 259.18 294.33 265.64 293.1 272.21 293.28 279.76 295.78 286.83 298.16 294.01 303.56 299.32 308.21 305.33 314.65 309.31 321.12 313.04 326.75 317.96 331.88 323.38 334.71 330.27 337.64 337.07 338.36 344.49 337.96 351.85 336.88 359.15 334.1 365.99 330.7 372.52 326.41 378.6 320.27 382.81"/><polyline class="cls-2" points="211.2 239.18 205.03 241.79 199.45 245.54 195.01 250.56 190.62 255.58 187.98 261.71 185.7 267.9 183.63 274.31 183.78 281.95 185.66 289.33 189.86 295.63 193.75 302.08 199.6 306.85 205.79 311.05 212.09 315.06 217.74 319.97 222.25 325.89 225.9 332.27 229 339.12 229.07 346.63 228.31 353.92 227.47 361.21 225.34 368.28 221.43 374.55 216.62 380.06 211.45 385.35"/><polyline class="cls-2" points="265.79 239.27 259.73 242.04 254.49 246.14 249.79 250.76 244.98 255.45 242.23 261.57 240.54 267.98 238.2 274.32 238.67 281.9 240.03 289.4 244.48 295.59 248.49 301.92 254.06 306.96 260.31 311.12 266.62 315.09 272.1 320.18 276.97 325.77 280.44 332.28 283.53 339.12 283.39 346.63 283.88 354.04 281.95 361.19 280.14 368.39 276.63 374.98 271.42 380.31 266.04 385.4"/></svg>